<?xml version="1.0" encoding="utf-8"?>
<!-- Generator: Adobe Illustrator 23.0.6, SVG Export Plug-In . SVG Version: 6.00 Build 0)  -->
<svg version="1.1" id="レイヤー_1" xmlns="http://www.w3.org/2000/svg" xmlns:xlink="http://www.w3.org/1999/xlink" x="0px"
	 y="0px" viewBox="0 0 241 307" style="enable-background:new 0 0 241 307;" xml:space="preserve">
<style type="text/css">
	.st0{fill:#171C61;}
	.st1{fill:none;}
	.st2{enable-background:new    ;}
	.st3{fill:#FFFFFF;}
</style>
<g id="_x32_">
	<g>
		<g>
			<path class="st0" d="M229,307H12c-6.6,0-12-5.4-12-12V12C0,5.4,5.4,0,12,0h217c6.6,0,12,5.4,12,12v283
				C241,301.6,235.6,307,229,307z"/>
		</g>
		<rect x="17.97" y="221.81" class="st1" width="210.99" height="49.19"/>
		<g class="st2">
			<path class="st3" d="M30.78,249.74c2.27,2.31,4.7,5.54,5.71,7.77l-2.23,1.34c-0.29-0.63-0.67-1.39-1.18-2.18
				c-4.37,1.22-8.86,2.48-11.85,3.19c0,0.34-0.21,0.55-0.46,0.67l-1.39-3.07l3.11-0.67v-21.76c-0.46,0.46-0.92,0.92-1.43,1.39
				c-0.5-0.59-1.43-1.43-2.06-1.81c4.07-3.4,7.06-7.9,8.78-11.34l3.4,0.55c-0.08,0.29-0.29,0.46-0.76,0.55
				c2.73,1.93,5.92,4.71,7.52,6.55l-2.02,1.93c-1.43-1.76-4.24-4.37-6.81-6.38c-1.55,2.52-3.57,5.38-6.09,8.02h4.83v-4.12l3.28,0.21
				c-0.04,0.29-0.29,0.46-0.8,0.55v3.36h5.38v13.69H25.15v7.98c2.06-0.46,4.33-1.01,6.55-1.55c-0.92-1.3-2.02-2.6-3.02-3.7
				L30.78,249.74z M33.13,236.72h-7.98v3.44h7.98V236.72z M25.15,245.96h7.98v-3.61h-7.98V245.96z M48.72,233.65v5.04
				c-0.04,3.23,1.26,15.46,10.08,21.21c-0.55,0.63-1.39,1.76-1.81,2.48c-7.06-4.79-9.24-13.86-9.62-17.35h-0.04
				c-0.42,3.53-2.77,12.35-10.38,17.31c-0.34-0.59-1.18-1.72-1.68-2.27c9.45-5.96,10.67-17.98,10.67-21.38v-5.04h-3.11
				c-1.01,3.53-2.31,6.72-3.86,9.03c-0.55-0.46-1.64-1.13-2.31-1.51c2.69-3.91,4.49-10.88,5.5-17.85l3.61,0.71
				c-0.13,0.34-0.42,0.5-0.92,0.5c-0.34,2.18-0.8,4.37-1.3,6.51h12.56l1.68,0.08c0,0.84-1.26,8.07-2.77,11.93l-2.14-1.13
				c0.67-2.1,1.34-5.33,1.81-8.28H48.72z"/>
			<path class="st3" d="M83.45,223.32c-0.08,0.29-0.42,0.5-0.84,0.59c4.16,4.87,11.76,9.96,18.19,12.52
				c-0.63,0.67-1.3,1.68-1.76,2.48c-6.51-2.94-14.07-8.19-18.23-13.06c-3.61,4.58-10.67,9.91-17.85,13.36
				c-0.38-0.63-1.09-1.68-1.64-2.27c7.31-3.28,14.58-8.86,18.02-13.82L83.45,223.32z M81.73,249.99c1.05,1.64,2.39,3.07,3.99,4.33
				c3.28-1.76,7.39-4.33,9.83-6.3l2.6,1.97c-0.21,0.21-0.55,0.29-0.92,0.21c-2.44,1.72-6.18,3.91-9.41,5.54
				c3.4,2.06,7.6,3.4,12.43,4.12c-0.63,0.59-1.39,1.72-1.76,2.48c-9.07-1.64-16-5.63-19.66-12.35h-6.68v8.65
				c3.44-0.29,7.27-0.67,11.01-1.01v2.39c-6.43,0.71-13.32,1.43-17.48,1.81c-0.08,0.34-0.29,0.55-0.63,0.59L64,259.32l5.38-0.46
				v-23.23h10v-5.12l3.7,0.21c-0.04,0.29-0.25,0.5-0.84,0.59v4.33h10.33v14.37H81.73z M89.75,237.94h-17.6v3.7h17.6V237.94z
				 M72.15,243.82v3.87h17.6v-3.87H72.15z"/>
			<path class="st3" d="M125.62,228.95h16.55v2.69H109.7v8.4c0,6.47-0.55,15.92-4.16,22.35c-0.5-0.5-1.76-1.3-2.44-1.64
				c3.44-6.09,3.78-14.62,3.78-20.71v-11.09h15.84v-5.63l3.74,0.25c-0.04,0.29-0.25,0.5-0.84,0.59V228.95z M127.84,232.85
				c-0.04,0.29-0.25,0.5-0.84,0.59v4.45h14.58v2.56H127v6.43h11.63v15.42h-2.86v-1.6h-19.16v1.72h-2.77v-15.54h10.33V232.6
				L127.84,232.85z M135.78,258.14v-8.7h-19.16v8.7H135.78z"/>
			<path class="st3" d="M183.75,238.57h-16.43c2.73,10.04,8.15,17.77,17.1,21.09c-0.71,0.63-1.64,1.81-2.1,2.65
				c-8.78-3.61-14.12-11.05-17.22-21.17c-1.93,8.32-6.51,16.55-17.35,21.21c-0.42-0.76-1.3-1.76-2.02-2.39
				c11.09-4.49,15.25-12.9,16.85-21.38h-16.21v-2.9h16.68c0.55-4.37,0.5-8.65,0.55-12.31l3.95,0.21c-0.04,0.38-0.38,0.59-0.92,0.71
				c-0.04,3.32-0.08,7.27-0.59,11.38h17.73V238.57z"/>
			<path class="st3" d="M203.86,258.44c-0.21,0.29-0.29,0.29-0.92,0.29c-3.11,1.51-8.32,2.94-12.6,3.74
				c-0.42-0.59-1.3-1.55-1.89-2.06c4.2-0.63,9.41-1.81,12.27-3.36L203.86,258.44z M192.18,230.38v5.21h-2.65v-7.35h7.27
				c-0.76-1.18-2.02-2.69-3.11-3.78l2.48-0.84c1.39,1.22,2.86,2.94,3.57,4.12l-1.22,0.5h6.93v-4.96l3.66,0.25
				c-0.04,0.29-0.25,0.5-0.8,0.59v4.12h6.93l-0.84-0.34c1.22-1.22,2.81-3.19,3.65-4.5l3.23,1.26c-0.17,0.21-0.42,0.29-0.88,0.29
				c-0.8,0.92-1.97,2.23-3.07,3.28h7.48v7.35h-2.73v-5.21H192.18z M193.65,256.59v-14.74h27.43v14.74H193.65z M196.01,232.77h22.6
				v6.93h-22.6V232.77z M196.38,243.69v2.44h21.93v-2.44H196.38z M196.38,247.94v2.48h21.93v-2.48H196.38z M196.38,252.22v2.52
				h21.93v-2.52H196.38z M215.83,237.81v-3.15H198.7v3.15H215.83z M222.85,262.43c-2.77-1.13-7.48-2.6-12.27-3.78l2.1-1.64
				c4.71,1.05,9.87,2.56,12.98,3.74L222.85,262.43z"/>
		</g>
		<g>
			<path class="st3" d="M59.14,46.01c-7.48-8.59-21.17-0.46-15.05,13.08c4.08,9.04,11.96,31.12,22.96,47.03
				c11.01,15.91,22.73,14.21,34.58,18.06l8.51,4.4l58.22,66.96l11.77-10.24l0.06-0.05c-1.72-1.98-54.67-62.88-75.6-86.96
				C83.87,74.46,62.78,50.19,59.14,46.01z"/>
			<path class="st3" d="M198.85,58.57l-20.31,23.37c-1.3,1.5-3.56,1.65-5.06,0.35l-0.72-0.62c-1.49-1.3-1.65-3.56-0.35-5.05
				l20.41-23.48c3.35-3.85,1.76-7.25-0.73-9.42c-2.48-2.16-6.08-3.26-9.43,0.59l-20.41,23.48c-1.3,1.49-3.56,1.65-5.05,0.35
				l-0.72-0.62c-1.5-1.3-1.65-3.56-0.36-5.05l20.31-23.37c6-6.9-4.03-15.21-9.89-8.47c-7.01,8.06-19.4,22.31-19.4,22.31
				c-10.82,12.36-10.66,18.15-9.13,26.26c1.24,6.54,3.06,11.24-3.66,18.97l-9.91,11.4l10.4,11.95l11.36-13.06
				c6.71-7.72,11.62-6.57,18.27-6.26c8.25,0.39,14-0.25,24.73-12.68c0,0,12.38-14.25,19.4-22.32
				C214.48,60.45,204.85,51.68,198.85,58.57z"/>
			<polygon class="st3" points="103.47,133.7 58.66,185.25 70.5,195.54 114.39,145.07 105.35,134.68 			"/>
		</g>
	</g>
</g>
</svg>
