<?xml version="1.0" encoding="utf-8"?>
<!-- Generator: Adobe Illustrator 24.0.1, SVG Export Plug-In . SVG Version: 6.00 Build 0)  -->
<svg version="1.1" id="レイヤー_1" xmlns="http://www.w3.org/2000/svg" xmlns:xlink="http://www.w3.org/1999/xlink" x="0px"
	 y="0px" viewBox="0 0 241 307" style="enable-background:new 0 0 241 307;" xml:space="preserve">
<style type="text/css">
	.st0{fill:#171C61;}
	.st1{fill:#FFFFFF;}
</style>
<g id="_x32_">
	<g>
		<g>
			<path class="st0" d="M229,307H12c-6.6,0-12-5.4-12-12V12C0,5.4,5.4,0,12,0h217c6.6,0,12,5.4,12,12v283
				C241,301.6,235.6,307,229,307z"/>
		</g>
		<g>
			<path class="st1" d="M216.3,51.1c-8.5,0-15.5,6.9-15.5,15.5c0,5.4,2.8,10.2,7.1,13c-4,13.8-12.1,33.9-19.4,38.1
				c-13.9,7.9-26.6-4.1-20.4-36.8c7.7-0.8,13.8-7.4,13.8-15.4c0-8.6-6.9-15.5-15.5-15.5c-8.6,0-15.5,6.9-15.5,15.5
				c0,5.3,2.6,9.9,6.7,12.7c-4.1,18.3-10.2,25.6-17.6,24.6c-11.2-1.5-13.2-21.7-13.4-50c5.6-2.3,9.6-7.8,9.6-14.3
				c0-8.5-6.9-15.5-15.5-15.5S105,29.9,105,38.5c0,6.5,3.9,12,9.6,14.3c-0.2,28.2-2.2,48.4-13.4,50c-7.4,1-13.5-6.3-17.6-24.6
				c4-2.8,6.7-7.4,6.7-12.7c0-8.6-6.9-15.5-15.5-15.5c-8.6,0-15.5,6.9-15.5,15.5c0,8,6,14.5,13.8,15.4c6.1,32.8-6.5,44.7-20.4,36.8
				c-7.3-4.2-15.4-24.3-19.5-38.1c4.2-2.8,7-7.5,7-13c0-8.5-6.9-15.5-15.5-15.5c-8.5,0-15.5,6.9-15.5,15.5c0,8.1,6.2,14.7,14.1,15.4
				l11.2,76.3h171.9L217.6,82c7.9-0.7,14.1-7.3,14.1-15.4C231.8,58,224.8,51.1,216.3,51.1z"/>
			<polygon class="st1" points="39.6,193.1 120.5,193.1 201.4,193.1 204.4,172.2 36.6,172.2 			"/>
		</g>
	</g>
</g>
</svg>
