<?xml version="1.0" encoding="utf-8"?>
<!-- Generator: Adobe Illustrator 23.0.6, SVG Export Plug-In . SVG Version: 6.00 Build 0)  -->
<svg version="1.1" xmlns="http://www.w3.org/2000/svg" xmlns:xlink="http://www.w3.org/1999/xlink" x="0px" y="0px"
	 viewBox="0 0 231 120" style="enable-background:new 0 0 231 120;" xml:space="preserve">
<style type="text/css">
	.st0{fill:none;}
	.st1{fill:#171C61;}
	.st2{enable-background:new    ;}
	.st3{fill:#FFFFFF;}
</style>
<g id="レイヤー_1">
	<rect x="35.44" y="86" class="st0" width="161.56" height="25"/>
	<g>
		<g>
			<path class="st1" d="M219,120H12c-6.6,0-12-5.4-12-12V12C0,5.4,5.4,0,12,0h207c6.6,0,12,5.4,12,12v96
				C231,114.6,225.6,120,219,120z"/>
		</g>
		<g class="st2">
			<path class="st3" d="M40.14,98.28l0.72,6.28l-1.44,0.16l-0.7-6.26l-7.5,0.96l-0.18-1.32l7.54-0.96l-0.52-4.5l-6.28,0.82
				l-0.18-1.34l6.3-0.8l-0.44-3.96l1.96-0.08c0,0.2-0.18,0.36-0.46,0.44l0.36,3.4l6.08-0.8l0.16,1.36l-6.08,0.78L40,96.94L47.52,96
				l0.18,1.32L40.14,98.28z"/>
			<path class="st3" d="M50.54,94.94h16.7v1.42H51.3c-0.12,0.2-0.38,0.34-0.64,0.38L50.54,94.94z"/>
			<path class="st3" d="M85.44,89.5c-0.06,0.08-0.16,0.16-0.26,0.2c-0.78,7.82-3.44,12.02-10.12,14.72c-0.26-0.34-0.66-0.78-1-1.08
				c6.38-2.6,8.88-6.4,9.54-12.96H72.18v5.52H70.8v-6.88h13.26l0.22-0.16L85.44,89.5z"/>
			<path class="st3" d="M88.54,94.94h16.7v1.42H89.3c-0.12,0.2-0.38,0.34-0.64,0.38L88.54,94.94z"/>
			<path class="st3" d="M120.04,97.94c-2.04-1.1-4.84-2.4-7.02-3.26v9.98h-1.5V87.27l2.02,0.12c-0.02,0.22-0.18,0.36-0.52,0.42v5.88
				l0.3-0.44c2.34,0.86,5.44,2.24,7.52,3.34L120.04,97.94z M117.94,88.51c0.92,0.76,2.12,2.02,2.76,2.94l-0.76,0.62
				c-0.6-0.86-1.82-2.2-2.72-2.92L117.94,88.51z M120.62,86.79c0.94,0.78,2.14,2.04,2.74,2.92l-0.72,0.62
				c-0.62-0.86-1.84-2.18-2.74-2.92L120.62,86.79z"/>
			<path class="st3" d="M132.46,87.67c-0.04,0.24-0.28,0.34-0.66,0.36c-0.22,1.12-0.58,3.06-0.82,4.26c0.9-0.1,1.72-0.18,2.22-0.18
				c3.04-0.04,4.08,1.98,4.08,4.98c0,1.5-0.28,3.28-0.68,4.48c-0.62,2.04-1.9,3.02-3.56,3.02c-0.82,0-1.9-0.34-3.62-1.74
				c0.22-0.36,0.38-0.8,0.54-1.22c1.6,1.24,2.44,1.52,3.06,1.52c1.14,0,1.82-0.72,2.22-2c0.42-1.24,0.64-3.08,0.64-4.1
				c-0.02-2.28-0.76-3.64-2.76-3.62c-0.6,0-1.42,0.08-2.44,0.2c-1,4.08-2.18,7.58-4.1,10.8l-1.32-0.64c1.94-3.1,3.04-6.2,3.98-10
				c-1.02,0.12-2.48,0.3-3.56,0.48l-0.12-1.4c0.98-0.12,2.62-0.3,3.96-0.46c0.3-1.46,0.62-3.26,0.86-5.02L132.46,87.67z
				 M141.72,97.3c-0.64-2.92-2.54-5.4-4.5-6.84l1.08-0.84c2.12,1.5,4.22,4.26,4.86,7.12L141.72,97.3z"/>
			<path class="st3" d="M148.76,91.01c-0.08,0.2-0.24,0.3-0.52,0.34c-0.16,2.96-0.54,5.48-0.82,5.9h0.02
				c1.96-1.46,5.02-2.46,7.36-2.46c3.08,0,5,1.58,4.96,4.38c-0.06,3.68-3.1,5.32-10.84,5.64c-0.1-0.38-0.28-0.94-0.5-1.32
				c6.98-0.3,9.78-1.44,9.84-4.3c0.02-1.92-1.32-3.08-3.66-3.08c-3.7,0-7.04,2.22-7.6,3.2l-1.36-0.66c0.4-0.38,1.1-3.96,1.14-7.88
				L148.76,91.01z M149.1,87.13c2.72,0.32,5.8,0.94,7.76,1.76l-0.5,1.38c-2.06-0.88-5.04-1.46-7.68-1.82L149.1,87.13z"/>
			<path class="st3" d="M168.88,96.78l-2.32,0.84v6.04c0,1.44-0.66,1.66-3.32,1.62c-0.06-0.32-0.26-0.88-0.44-1.24
				c0.94,0.02,1.8,0.02,2.06,0.02c0.26-0.02,0.38-0.1,0.38-0.38v-5.6c-0.94,0.34-1.8,0.64-2.48,0.86c0,0.16-0.1,0.28-0.24,0.32
				l-0.56-1.58c0.9-0.24,2.04-0.58,3.28-0.98v-4.68h-3.04v-1.26h3.04v-4.04l1.72,0.1c-0.02,0.16-0.12,0.24-0.4,0.28v3.66h2.3v1.26
				h-2.3v4.26l2.16-0.68L168.88,96.78z M178.42,95.44l0.9,0.4c-0.04,0.1-0.12,0.14-0.18,0.2c-0.76,2.34-2.04,4.2-3.64,5.68
				c1.48,1.1,3.3,1.92,5.4,2.38c-0.32,0.28-0.7,0.82-0.9,1.2c-2.18-0.56-4.04-1.46-5.58-2.7c-1.7,1.24-3.66,2.14-5.72,2.7
				c-0.14-0.34-0.46-0.9-0.74-1.18c1.96-0.46,3.84-1.28,5.46-2.44c-1.28-1.28-2.28-2.82-2.98-4.64l1.02-0.3h-1.76V95.5h8.48
				L178.42,95.44z M172.18,88.79v0.78c0,1.74-0.52,3.92-2.74,5.38c-0.18-0.28-0.66-0.78-0.92-0.98c2.02-1.28,2.38-3.02,2.38-4.42
				v-2.02h6.6v4.94c0,0.44,0.08,0.52,0.46,0.52h1.2c0.4,0,0.48-0.3,0.52-2.46c0.28,0.22,0.8,0.42,1.14,0.52
				c-0.1,2.48-0.42,3.1-1.52,3.1h-1.54c-1.2,0-1.56-0.34-1.56-1.68v-3.68H172.18z M171.68,96.74c0.64,1.58,1.58,2.98,2.78,4.12
				c1.28-1.12,2.3-2.5,2.98-4.12H171.68z"/>
			<path class="st3" d="M188.38,101.22c-0.06,0.12-0.22,0.2-0.44,0.16c-1.2,1.28-3.12,2.6-4.82,3.4c-0.24-0.24-0.68-0.66-0.98-0.86
				c1.68-0.74,3.6-1.98,4.72-3.3L188.38,101.22z M182.3,87.55h18.24v1.12h-6.22v1.66h4.8V95H183.8v-4.66h4.54v-1.66h-6.04V87.55z
				 M182.38,100.12V99h18.1v1.12h-8.38v3.7c0,1.38-0.64,1.5-3.76,1.5c-0.06-0.38-0.26-0.88-0.44-1.24c0.7,0.02,1.32,0.04,1.78,0.04
				c1.06,0,1.06-0.02,1.06-0.34v-3.66H182.38z M184.86,96.4H198v1.1h-13.14V96.4z M185.06,91.4v2.54h3.28V91.4H185.06z
				 M193.04,90.33v-1.66h-3.44v1.66H193.04z M189.6,91.4v2.54h3.44V91.4H189.6z M197.78,91.4h-3.46v2.54h3.46V91.4z M199.32,104.7
				c-1.04-0.92-3.18-2.34-4.9-3.32l1-0.72c1.7,0.9,3.84,2.26,4.96,3.2L199.32,104.7z"/>
		</g>
	</g>
</g>
<g id="_x32_">
	<g>
		<path class="st3" d="M154.17,7.41H76.83c-6.56,0-11.89,5.34-11.89,11.89v43.75c0,8.51,6.93,15.44,15.44,15.44h70.24
			c8.51,0,15.44-6.93,15.44-15.44V19.3C166.06,12.74,160.72,7.41,154.17,7.41z M160.05,63.05c0,5.2-4.23,9.43-9.43,9.43H80.38
			c-5.2,0-9.43-4.23-9.43-9.43V19.3c0-3.24,2.64-5.88,5.88-5.88h77.33c3.24,0,5.88,2.64,5.88,5.88V63.05L160.05,63.05z"/>
		<path class="st3" d="M94.76,47.96h6.45c0.98,0,1.78-0.8,1.78-1.78v-6.45c0-0.98-0.8-1.78-1.78-1.78h-6.45
			c-0.98,0-1.78,0.8-1.78,1.78v6.45C92.97,47.16,93.77,47.96,94.76,47.96z"/>
		<path class="st3" d="M109.77,47.96h6.44c0.98,0,1.78-0.8,1.78-1.78v-6.45c0-0.98-0.8-1.78-1.78-1.78h-6.44
			c-0.98,0-1.78,0.8-1.78,1.78v6.45C107.99,47.16,108.79,47.96,109.77,47.96z"/>
		<path class="st3" d="M124.79,47.96h6.45c0.98,0,1.78-0.8,1.78-1.78v-6.45c0-0.98-0.8-1.78-1.78-1.78h-6.45
			c-0.98,0-1.78,0.8-1.78,1.78v6.45C123.01,47.16,123.81,47.96,124.79,47.96z"/>
		<path class="st3" d="M151.26,52.96h-6.44c-0.98,0-1.78,0.8-1.78,1.78v6.44c0,0.98,0.8,1.78,1.78,1.78h6.44
			c0.98,0,1.78-0.8,1.78-1.78v-6.44C153.04,53.76,152.24,52.96,151.26,52.96z"/>
		<path class="st3" d="M94.76,32.94h6.45c0.98,0,1.78-0.8,1.78-1.78v-6.44c0-0.98-0.8-1.78-1.78-1.78h-6.45
			c-0.98,0-1.78,0.8-1.78,1.78v6.44C92.97,32.14,93.77,32.94,94.76,32.94z"/>
		<path class="st3" d="M86.19,37.94h-6.45c-0.98,0-1.78,0.8-1.78,1.78v6.45c0,0.98,0.8,1.78,1.78,1.78h6.45
			c0.98,0,1.78-0.8,1.78-1.78v-6.45C87.97,38.74,87.17,37.94,86.19,37.94z"/>
		<path class="st3" d="M86.19,22.93h-6.45c-0.98,0-1.78,0.8-1.78,1.78v6.44c0,0.98,0.8,1.78,1.78,1.78h6.45
			c0.98,0,1.78-0.8,1.78-1.78v-6.44C87.97,23.73,87.17,22.93,86.19,22.93z"/>
		<path class="st3" d="M86.19,52.96h-6.44c-0.98,0-1.78,0.8-1.78,1.78v6.44c0,0.98,0.8,1.78,1.78,1.78h6.44
			c0.98,0,1.78-0.8,1.78-1.78v-6.44C87.97,53.76,87.17,52.96,86.19,52.96z"/>
		<path class="st3" d="M109.77,32.94h6.44c0.98,0,1.78-0.8,1.78-1.78v-6.44c0-0.98-0.8-1.78-1.78-1.78h-6.44
			c-0.98,0-1.78,0.8-1.78,1.78v6.44C107.99,32.14,108.79,32.94,109.77,32.94z"/>
		<path class="st3" d="M124.79,32.94h6.45c0.98,0,1.78-0.8,1.78-1.78v-6.44c0-0.98-0.8-1.78-1.78-1.78h-6.45
			c-0.98,0-1.78,0.8-1.78,1.78v6.44C123.01,32.14,123.81,32.94,124.79,32.94z"/>
		<path class="st3" d="M136.24,52.96H94.76c-0.98,0-1.78,0.8-1.78,1.78v6.44c0,0.98,0.8,1.78,1.78,1.78h41.49
			c0.98,0,1.78-0.8,1.78-1.78v-6.44C138.03,53.76,137.23,52.96,136.24,52.96z"/>
		<path class="st3" d="M151.26,22.93h-11.45c-0.98,0-1.78,0.8-1.78,1.78v21.46c0,0.98,0.8,1.78,1.78,1.78h11.45
			c0.98,0,1.78-0.8,1.78-1.78V24.71C153.04,23.73,152.24,22.93,151.26,22.93z"/>
	</g>
</g>
</svg>
