<?xml version="1.0" encoding="utf-8"?>
<!-- Generator: Adobe Illustrator 23.0.6, SVG Export Plug-In . SVG Version: 6.00 Build 0)  -->
<svg version="1.1" xmlns="http://www.w3.org/2000/svg" xmlns:xlink="http://www.w3.org/1999/xlink" x="0px" y="0px"
	 viewBox="0 0 231 120" style="enable-background:new 0 0 231 120;" xml:space="preserve">
<style type="text/css">
	.st0{fill:#171C61;}
	.st1{fill:#FFFFFF;}
</style>
<g id="レイヤー_1">
	<g>
		<path class="st0" d="M219,120H12c-6.6,0-12-5.4-12-12V12C0,5.4,5.4,0,12,0h207c6.6,0,12,5.4,12,12v96C231,114.6,225.6,120,219,120
			z"/>
	</g>
	<g>
		<path class="st1" d="M51.99,96.92l1.78,0.12c-0.02,0.14-0.12,0.24-0.4,0.26v7.96h-1.38V104h-13v1.32h-1.34v-8.4l1.76,0.1
			c-0.02,0.16-0.14,0.26-0.42,0.28v5.38h5.68v-7.1H38.4v-6.92l1.76,0.12c-0.02,0.12-0.14,0.22-0.42,0.26v5.22h4.92v-7.46l1.78,0.12
			c-0.02,0.14-0.14,0.24-0.4,0.28v7.06h5.12v-5.62l1.78,0.12c-0.02,0.14-0.12,0.24-0.4,0.28v6.54h-6.5v7.1h5.94V96.92z"/>
		<path class="st1" d="M67.48,99.26c0.46,0.86,1.04,1.64,1.76,2.3c1.08-0.6,2.34-1.46,3.14-2.1l1.2,0.88
			c-0.06,0.1-0.22,0.14-0.4,0.1c-0.78,0.54-2,1.28-3.06,1.84c1.28,0.92,2.84,1.58,4.64,1.94c-0.3,0.26-0.66,0.76-0.82,1.1
			c-3.66-0.88-6.32-2.98-7.72-6.06h-2.58v3.98c1.44-0.2,3.04-0.44,4.58-0.66l0.04,1.08c-2.68,0.48-5.54,0.96-7.32,1.24
			c0,0.16-0.12,0.26-0.24,0.28l-0.58-1.44c0.64-0.08,1.42-0.2,2.26-0.32v-4.16H59.6v-1.18h3.82v-2.26h-3.14v-1.18h3.14v-2.06h-3.88
			v1.06c0,3.44-0.28,8.34-2.38,11.66c-0.26-0.2-0.86-0.56-1.18-0.68c2.04-3.22,2.22-7.72,2.22-10.98v-5.94h15.12v4.88h-3.04v0.02
			h0.34c-0.02,0.14-0.14,0.24-0.4,0.28v1.76h3.48v1.18h-3.48v2.26h4.32v1.18H67.48z M59.54,88.89v2.48h12.42v-2.48H59.54z
			 M65.06,92.6c-0.02,0.14-0.12,0.24-0.38,0.28v1.76h4.28v-2.06h-4.22v0.02H65.06z M64.68,95.82v2.26h4.28v-2.26H64.68z"/>
		<path class="st1" d="M76.22,95.06h18.52v1.48H76.22V95.06z"/>
		<path class="st1" d="M108.08,103.46c0,0.42,0.18,0.5,1.12,0.5h3.28c0.76,0,0.9-0.2,0.98-1.94c0.28,0.2,0.8,0.38,1.16,0.46
			c-0.16,2.1-0.54,2.6-2,2.6h-3.52c-1.86,0-2.34-0.32-2.34-1.62v-1.68h-3.1c-0.72,1.92-2.26,3-6.8,3.54
			c-0.08-0.3-0.38-0.8-0.62-1.04c3.78-0.36,5.32-1.04,5.98-2.5h-2.96v-6.66h12.36v6.66h-3.54V103.46z M105.58,93.32v0.9h-8.4v-6.7
			h8.14v0.9h-3.54v0.98h2.92v2.88h-2.92v1.04H105.58z M100.64,88.41H98.4v0.98h2.24V88.41z M103.48,91.4v-1.12H98.4v1.12H103.48z
			 M98.4,92.28v1.04h2.24v-1.04H98.4z M100.54,96v1.04h9.74V96H100.54z M100.54,97.9v1.06h9.74V97.9H100.54z M100.54,99.8v1.1h9.74
			v-1.1H100.54z M114.61,89.87h-6.68c-0.48,0.92-1.04,1.76-1.6,2.4c-0.24-0.22-0.7-0.52-0.98-0.68c1.04-1.12,2.02-3.02,2.58-4.9
			l1.52,0.44c-0.04,0.12-0.18,0.2-0.4,0.18c-0.16,0.48-0.36,0.98-0.58,1.46h6.14V89.87z M114.03,93.42h-6.74v-1.08h6.74V93.42z"/>
		<path class="st1" d="M123.9,87.67c-0.04,0.24-0.28,0.34-0.66,0.36c-0.22,1.12-0.58,3.06-0.82,4.26c0.9-0.1,1.72-0.18,2.22-0.18
			c3.04-0.04,4.08,1.98,4.08,4.98c0,1.5-0.28,3.28-0.68,4.48c-0.62,2.04-1.9,3.02-3.56,3.02c-0.82,0-1.9-0.34-3.62-1.74
			c0.22-0.36,0.38-0.8,0.54-1.22c1.6,1.24,2.44,1.52,3.06,1.52c1.14,0,1.82-0.72,2.22-2c0.42-1.24,0.64-3.08,0.64-4.1
			c-0.02-2.28-0.76-3.64-2.76-3.62c-0.6,0-1.42,0.08-2.44,0.2c-1,4.08-2.18,7.58-4.1,10.8l-1.32-0.64c1.94-3.1,3.04-6.2,3.98-10
			c-1.02,0.12-2.48,0.3-3.56,0.48l-0.12-1.4c0.98-0.12,2.62-0.3,3.96-0.46c0.3-1.46,0.62-3.26,0.86-5.02L123.9,87.67z M133.17,97.3
			c-0.64-2.92-2.54-5.4-4.5-6.84l1.08-0.84c2.12,1.5,4.22,4.26,4.86,7.12L133.17,97.3z"/>
		<path class="st1" d="M141.6,91.02c-0.08,0.2-0.24,0.3-0.52,0.34c-0.16,2.96-0.54,5.48-0.82,5.9h0.02
			c1.96-1.46,5.02-2.46,7.36-2.46c3.08,0,5,1.58,4.96,4.38c-0.06,3.68-3.1,5.32-10.84,5.64c-0.1-0.38-0.28-0.94-0.5-1.32
			c6.98-0.3,9.78-1.44,9.84-4.3c0.02-1.92-1.32-3.08-3.66-3.08c-3.7,0-7.04,2.22-7.6,3.2l-1.36-0.66c0.4-0.38,1.1-3.96,1.14-7.88
			L141.6,91.02z M141.94,87.13c2.72,0.32,5.8,0.94,7.76,1.76l-0.5,1.38c-2.06-0.88-5.04-1.46-7.68-1.82L141.94,87.13z"/>
		<path class="st1" d="M162.92,96.78l-2.32,0.84v6.04c0,1.44-0.66,1.66-3.32,1.62c-0.06-0.32-0.26-0.88-0.44-1.24
			c0.94,0.02,1.8,0.02,2.06,0.02c0.26-0.02,0.38-0.1,0.38-0.38v-5.6c-0.94,0.34-1.8,0.64-2.48,0.86c0,0.16-0.1,0.28-0.24,0.32
			L156,97.68c0.9-0.24,2.04-0.58,3.28-0.98v-4.68h-3.04v-1.26h3.04v-4.04l1.72,0.1c-0.02,0.16-0.12,0.24-0.4,0.28v3.66h2.3v1.26
			h-2.3v4.26l2.16-0.68L162.92,96.78z M172.47,95.44l0.9,0.4c-0.04,0.1-0.12,0.14-0.18,0.2c-0.76,2.34-2.04,4.2-3.64,5.68
			c1.48,1.1,3.3,1.92,5.4,2.38c-0.32,0.28-0.7,0.82-0.9,1.2c-2.18-0.56-4.04-1.46-5.58-2.7c-1.7,1.24-3.66,2.14-5.72,2.7
			c-0.14-0.34-0.46-0.9-0.74-1.18c1.96-0.46,3.84-1.28,5.46-2.44c-1.28-1.28-2.28-2.82-2.98-4.64l1.02-0.3h-1.76V95.5h8.48
			L172.47,95.44z M166.22,88.79v0.78c0,1.74-0.52,3.92-2.74,5.38c-0.18-0.28-0.66-0.78-0.92-0.98c2.02-1.28,2.38-3.02,2.38-4.42
			v-2.02h6.6v4.94c0,0.44,0.08,0.52,0.46,0.52h1.2c0.4,0,0.48-0.3,0.52-2.46c0.28,0.22,0.8,0.42,1.14,0.52
			c-0.1,2.48-0.42,3.1-1.52,3.1h-1.54c-1.2,0-1.56-0.34-1.56-1.68v-3.68H166.22z M165.72,96.74c0.64,1.58,1.58,2.98,2.78,4.12
			c1.28-1.12,2.3-2.5,2.98-4.12H165.72z"/>
		<path class="st1" d="M182.42,101.22c-0.06,0.12-0.22,0.2-0.44,0.16c-1.2,1.28-3.12,2.6-4.82,3.4c-0.24-0.24-0.68-0.66-0.98-0.86
			c1.68-0.74,3.6-1.98,4.72-3.3L182.42,101.22z M176.34,87.55h18.24v1.12h-6.22v1.66h4.8V95h-15.32v-4.66h4.54v-1.66h-6.04V87.55z
			 M176.42,100.12V99h18.1v1.12h-8.38v3.7c0,1.38-0.64,1.5-3.76,1.5c-0.06-0.38-0.26-0.88-0.44-1.24c0.7,0.02,1.32,0.04,1.78,0.04
			c1.06,0,1.06-0.02,1.06-0.34v-3.66H176.42z M178.9,96.4h13.14v1.1H178.9V96.4z M179.1,91.4v2.54h3.28V91.4H179.1z M187.08,90.33
			v-1.66h-3.44v1.66H187.08z M183.64,91.4v2.54h3.44V91.4H183.64z M191.83,91.4h-3.46v2.54h3.46V91.4z M193.37,104.7
			c-1.04-0.92-3.18-2.34-4.9-3.32l1-0.72c1.7,0.9,3.84,2.26,4.96,3.2L193.37,104.7z"/>
	</g>
</g>
<g id="_x32_">
	<g>
		<circle class="st1" cx="93.19" cy="18.94" r="7.44"/>
		<circle class="st1" cx="115.5" cy="18.94" r="7.44"/>
		<circle class="st1" cx="137.81" cy="18.94" r="7.44"/>
		<circle class="st1" cx="93.19" cy="41.25" r="7.44"/>
		<circle class="st1" cx="115.5" cy="41.25" r="7.44"/>
		<circle class="st1" cx="137.81" cy="41.25" r="7.44"/>
		<circle class="st1" cx="93.19" cy="63.56" r="7.44"/>
		<circle class="st1" cx="115.5" cy="63.56" r="7.44"/>
		<circle class="st1" cx="137.81" cy="63.56" r="7.44"/>
	</g>
</g>
</svg>
