<?xml version="1.0" encoding="utf-8"?>
<!-- Generator: Adobe Illustrator 23.0.6, SVG Export Plug-In . SVG Version: 6.00 Build 0)  -->
<svg version="1.1" xmlns="http://www.w3.org/2000/svg" xmlns:xlink="http://www.w3.org/1999/xlink" x="0px" y="0px"
	 viewBox="0 0 231 120" style="enable-background:new 0 0 231 120;" xml:space="preserve">
<style type="text/css">
	.st0{fill:none;}
	.st1{fill:#171C61;}
	.st2{enable-background:new    ;}
	.st3{fill:#FFFFFF;}
</style>
<g id="レイヤー_1">
	<rect x="35.44" y="86" class="st0" width="161.56" height="25"/>
	<g>
		<g>
			<path class="st1" d="M219,120H12c-6.6,0-12-5.4-12-12V12C0,5.4,5.4,0,12,0h207c6.6,0,12,5.4,12,12v96
				C231,114.6,225.6,120,219,120z"/>
		</g>
		<g class="st2">
			<path class="st3" d="M55.28,96.78l-2.32,0.84v6.04c0,1.44-0.66,1.66-3.32,1.62c-0.06-0.32-0.26-0.88-0.44-1.24
				c0.94,0.02,1.8,0.02,2.06,0.02c0.26-0.02,0.38-0.1,0.38-0.38v-5.6c-0.94,0.34-1.8,0.64-2.48,0.86c0,0.16-0.1,0.28-0.24,0.32
				l-0.56-1.58c0.9-0.24,2.04-0.58,3.28-0.98v-4.68H48.6v-1.26h3.04v-4.04l1.72,0.1c-0.02,0.16-0.12,0.24-0.4,0.28v3.66h2.3v1.26
				h-2.3v4.26l2.16-0.68L55.28,96.78z M64.82,95.44l0.9,0.4c-0.04,0.1-0.12,0.14-0.18,0.2c-0.76,2.34-2.04,4.2-3.64,5.68
				c1.48,1.1,3.3,1.92,5.4,2.38c-0.32,0.28-0.7,0.82-0.9,1.2c-2.18-0.56-4.04-1.46-5.58-2.7c-1.7,1.24-3.66,2.14-5.72,2.7
				c-0.14-0.34-0.46-0.9-0.74-1.18c1.96-0.46,3.84-1.28,5.46-2.44c-1.28-1.28-2.28-2.82-2.98-4.64l1.02-0.3H56.1V95.5h8.48
				L64.82,95.44z M58.58,88.79v0.78c0,1.74-0.52,3.92-2.74,5.38c-0.18-0.28-0.66-0.78-0.92-0.98c2.02-1.28,2.38-3.02,2.38-4.42
				v-2.02h6.6v4.94c0,0.44,0.08,0.52,0.46,0.52h1.2c0.4,0,0.48-0.3,0.52-2.46c0.28,0.22,0.8,0.42,1.14,0.52
				c-0.1,2.48-0.42,3.1-1.52,3.1h-1.54c-1.2,0-1.56-0.34-1.56-1.68v-3.68H58.58z M58.08,96.74c0.64,1.58,1.58,2.98,2.78,4.12
				c1.28-1.12,2.3-2.5,2.98-4.12H58.08z"/>
			<path class="st3" d="M74.78,101.22c-0.06,0.12-0.22,0.2-0.44,0.16c-1.2,1.28-3.12,2.6-4.82,3.4c-0.24-0.24-0.68-0.66-0.98-0.86
				c1.68-0.74,3.6-1.98,4.72-3.3L74.78,101.22z M68.7,87.55h18.24v1.12h-6.22v1.66h4.8V95H70.2v-4.66h4.54v-1.66H68.7V87.55z
				 M68.78,100.12V99h18.1v1.12H78.5v3.7c0,1.38-0.64,1.5-3.76,1.5c-0.06-0.38-0.26-0.88-0.44-1.24c0.7,0.02,1.32,0.04,1.78,0.04
				c1.06,0,1.06-0.02,1.06-0.34v-3.66H68.78z M71.26,96.4H84.4v1.1H71.26V96.4z M71.46,91.4v2.54h3.28V91.4H71.46z M79.44,90.33
				v-1.66H76v1.66H79.44z M76,91.4v2.54h3.44V91.4H76z M84.18,91.4h-3.46v2.54h3.46V91.4z M85.72,104.7
				c-1.04-0.92-3.18-2.34-4.9-3.32l1-0.72c1.7,0.9,3.84,2.26,4.96,3.2L85.72,104.7z"/>
			<path class="st3" d="M105.74,95.28c-0.04,0.02-0.08,0.04-0.12,0.04c-0.12,0-0.22-0.06-0.3-0.12c-1.52,0.5-3.74,1.32-5.4,2.04
				c0.04,0.46,0.06,0.98,0.06,1.56c0,0.64-0.02,1.36-0.06,2.14l-1.46,0.08c0.06-0.72,0.1-1.64,0.1-2.42c0-0.3,0-0.58-0.02-0.8
				c-2.26,1.1-4.1,2.44-4.1,3.64c0,1.16,1.38,1.72,4.14,1.72c1.94,0,3.74-0.04,5.02-0.2l0.02,1.34c-1.18,0.12-2.98,0.16-5.04,0.16
				c-3.84,0-5.54-0.92-5.54-2.96c0-1.76,2.32-3.46,5.32-4.96c-0.12-1.26-0.68-1.88-1.48-1.88c-1.46,0-2.98,0.82-4.78,2.82
				c-0.56,0.62-1.34,1.4-2.2,2.18l-0.98-0.98c2-1.76,3.88-3.44,5.04-7.38l-1.12,0.02H89.5v-1.3c1.22,0.02,2.64,0.02,3.46,0.02
				l1.36-0.02c0.22-0.92,0.4-1.78,0.54-2.86l1.96,0.24c-0.04,0.2-0.2,0.32-0.5,0.36c-0.14,0.8-0.32,1.5-0.5,2.22
				c1.36-0.02,4.28-0.34,6.88-1.16l0.24,1.34c-2.5,0.78-5.52,1.06-7.5,1.12c-0.48,1.5-0.98,2.7-1.44,3.38h0.02
				c0.88-0.78,2.2-1.3,3.22-1.3c1.36,0,2.22,0.98,2.48,2.6c1.68-0.76,3.8-1.58,5.4-2.2L105.74,95.28z"/>
			<path class="st3" d="M119.88,102.9c0,0.58,0.16,0.68,1.04,0.68h3c0.8,0,0.94-0.36,1-2.72c0.3,0.22,0.88,0.42,1.24,0.54
				c-0.16,2.74-0.54,3.44-2.14,3.44h-3.22c-1.78,0-2.26-0.42-2.26-1.94v-5.16h-3.64l-0.1,0.02c-0.52,3.46-1.56,6.18-6.4,7.56
				c-0.14-0.34-0.5-0.86-0.78-1.14c4.28-1.1,5.34-3.34,5.74-6.44h-5.34v-1.28h18.02v1.28h-6.16V102.9z M109.96,90.47v2.9h-1.36v-4.2
				h7.66v-2.48l1.8,0.12c-0.02,0.14-0.12,0.24-0.4,0.28v2.08h7.74v4.2H124v-2.9H109.96z M122.52,94.08h-11v-1.26h11V94.08z"/>
			<path class="st3" d="M143,88.23l1.24,0.76c-0.06,0.1-0.22,0.18-0.34,0.2c-1.68,1.92-4.52,4.24-6.98,5.62v8.68
				c0,0.96-0.26,1.36-1.02,1.58c-0.74,0.22-2.06,0.22-4.16,0.22c-0.08-0.38-0.34-0.96-0.56-1.36c1.1,0.04,2.14,0.06,2.86,0.06
				c1.3,0,1.48,0,1.48-0.52v-9.86l0.86,0.04c1.78-1.04,3.72-2.6,5.04-4h-13.38v-1.32h14.7L143,88.23z"/>
			<path class="st3" d="M156.4,90.01c-0.02-0.44-0.08-2.62-0.12-3.12l2.06,0.08c-0.02,0.16-0.16,0.36-0.52,0.42
				c0,0.24,0,0.48,0.04,2.58c2.46-0.08,5.04-0.14,6.54-0.16v1.38c-1.7-0.04-4.12,0-6.5,0.08c0.04,1.56,0.08,3,0.14,4.1
				c0.2,0.66,0.24,1.26,0.24,2.1c0,0.64-0.06,1.38-0.2,1.94c-0.52,2.34-2.24,4.4-5.76,5.8c-0.26-0.34-0.7-0.84-1.02-1.14
				c3.06-1.1,4.7-2.76,5.2-4.66h-0.02c-0.42,0.6-1.16,1.06-2.06,1.06c-1.78,0-3.36-1.46-3.36-3.5c-0.02-2.12,1.7-3.74,3.6-3.74
				c0.72,0,1.46,0.26,1.86,0.62c0-0.34-0.04-1.68-0.08-2.54c-2.08,0.04-8.4,0.26-9.22,0.3l-0.04-1.32l4.56-0.12L156.4,90.01z
				 M156.78,97.04c0-0.78,0-2.6-2.04-2.6c-1.38,0.02-2.36,1.08-2.38,2.54c0,1.4,1.06,2.32,2.22,2.32
				C156,99.3,156.78,98.2,156.78,97.04z"/>
			<path class="st3" d="M171.52,95.5c1.32-0.68,3.38-1.16,4.96-1.16c3.18,0,5.18,1.86,5.18,4.8c0,3.62-3.18,5.62-7.2,5.62
				c-2.6,0-4.38-1.04-4.38-2.8c0-1.48,1.46-2.68,3.28-2.68c2.26,0,3.78,1.8,4.08,3.62c1.6-0.6,2.76-1.88,2.76-3.74
				c0-2.16-1.6-3.54-4.12-3.54c-3,0-5.94,1.34-7.26,2.62c-0.6,0.56-1.38,1.4-1.92,2.02l-1.02-1.02c1.8-1.88,7.52-7.34,10.24-9.88
				c-1.16,0.16-5.16,0.32-7.44,0.4c-0.06,0.14-0.26,0.26-0.42,0.3l-0.16-1.7c2.7-0.02,7.86-0.22,9.32-0.44l0.3-0.14l1.06,1.3
				c-0.1,0.08-0.28,0.16-0.48,0.18c-1.42,1.16-5.22,4.72-6.78,6.22V95.5z M174.28,103.5c0.6,0,1.3-0.08,1.82-0.2
				c-0.22-1.54-1.36-2.84-2.84-2.84c-1.04,0-1.96,0.56-1.96,1.48C171.3,103.16,172.96,103.5,174.28,103.5z"/>
		</g>
	</g>
</g>
<g id="_x32_">
	<g>
		<path class="st3" d="M141.45,46.02l-8.99-11.26c-0.29-0.36-0.72-0.57-1.18-0.57h-5.52V17.32h-6.63c-0.17-0.38-0.41-0.78-0.67-1.15
			c-0.47-0.41-1.34-1.12-2.86-2.11c-1.47-0.97-3.18-1.49-4.56-1.51c-4.03-0.08-8.57-0.18-8.57-0.18l-1.23-0.77l-5.27,7.5l2.32,1.48
			l2.98,4.43c0.33,0.5,0.79,0.9,1.32,1.17c0,0,2.06,1.03,3.7,1.89c0.59,0.31,1.29,0.59,2.05,0.84l0.54,0.17v5.1h-5.52
			c-0.46,0-0.9,0.21-1.19,0.57l-8.99,11.26c-0.22,0.27-0.33,0.6-0.33,0.94v31.51c0,0.4,0.16,0.79,0.44,1.07
			c0.28,0.28,0.67,0.44,1.07,0.44h45.9c0.4,0,0.79-0.16,1.07-0.44c0.28-0.28,0.44-0.67,0.44-1.07V46.97
			C141.78,46.62,141.66,46.29,141.45,46.02z M111.37,29.83c0.37,0.1,0.74,0.21,1.09,0.31c2.3,0.66,4.29-1.65,2.42-3.27
			c-2.43-2.11-2.51-2.12-2.51-2.12c-0.47-0.4-0.8-0.91-1.01-1.47v-2.44c0.14-0.37,0.32-0.72,0.57-1.03h11.31v20.27h-11.89V29.83
			L111.37,29.83z M104.08,37.22h4.79v1.55h-2.65l-2.33,3.46h26.51l-2.33-3.46h-2.32v-1.55h4.79l7.08,8.88H96.99L104.08,37.22z
			 M118.22,60.71h-0.8h-0.21h-0.8l0.25-2.28c-0.47-0.24-0.8-0.72-0.8-1.29c0-0.8,0.65-1.45,1.45-1.45c0.8,0,1.45,0.65,1.45,1.45
			c0,0.57-0.32,1.05-0.8,1.29L118.22,60.71z M115.24,53.52v-1.75c0-0.57,0.23-1.09,0.61-1.47c0.18-0.17,0.38-0.31,0.61-0.42v0.63
			c0,0.47,0.38,0.86,0.86,0.86c0.47,0,0.86-0.38,0.86-0.86v-0.63c0.22,0.1,0.43,0.24,0.61,0.42c0.37,0.38,0.6,0.89,0.61,1.47v1.75
			H115.24z M138.75,76.96H95.88V47.83h20.58v0.51c-1.54,0.39-2.68,1.77-2.68,3.43v1.76c-0.98,0.04-1.76,0.84-1.76,1.83v6.4
			c0,1.02,0.83,1.84,1.84,1.84h6.92c1.02,0,1.84-0.83,1.84-1.84v-6.4c0-0.99-0.78-1.79-1.76-1.83v-1.76c0-1.66-1.14-3.04-2.68-3.43
			v-0.51h20.58L138.75,76.96L138.75,76.96z"/>
		<polygon class="st3" points="100.26,10.46 95.74,7.45 89.22,16.8 93.68,19.81 		"/>
	</g>
</g>
</svg>
