<?xml version="1.0" encoding="utf-8"?>
<!-- Generator: Adobe Illustrator 23.0.6, SVG Export Plug-In . SVG Version: 6.00 Build 0)  -->
<svg version="1.1" id="レイヤー_1" xmlns="http://www.w3.org/2000/svg" xmlns:xlink="http://www.w3.org/1999/xlink" x="0px"
	 y="0px" viewBox="0 0 231 120" style="enable-background:new 0 0 231 120;" xml:space="preserve">
<style type="text/css">
	.st0{fill:#171C61;}
	.st1{fill:none;}
	.st2{enable-background:new    ;}
	.st3{fill:#FFFFFF;}
</style>
<g>
	<g>
		<path class="st0" d="M219,120H12c-6.6,0-12-5.4-12-12V12C0,5.4,5.4,0,12,0h207c6.6,0,12,5.4,12,12v96C231,114.6,225.6,120,219,120
			z"/>
	</g>
	<rect x="35.44" y="86" class="st1" width="161.56" height="25"/>
	<g class="st2">
		<path class="st3" d="M42.92,96.78l-2.32,0.84v6.04c0,1.44-0.66,1.66-3.32,1.62c-0.06-0.32-0.26-0.88-0.44-1.24
			c0.94,0.02,1.8,0.02,2.06,0.02c0.26-0.02,0.38-0.1,0.38-0.38v-5.6c-0.94,0.34-1.8,0.64-2.48,0.86c0,0.16-0.1,0.28-0.24,0.32
			L36,97.68c0.9-0.24,2.04-0.58,3.28-0.98v-4.68h-3.04v-1.26h3.04v-4.04l1.72,0.1c-0.02,0.16-0.12,0.24-0.4,0.28v3.66h2.3v1.26h-2.3
			v4.26l2.16-0.68L42.92,96.78z M52.47,95.44l0.9,0.4c-0.04,0.1-0.12,0.14-0.18,0.2c-0.76,2.34-2.04,4.2-3.64,5.68
			c1.48,1.1,3.3,1.92,5.4,2.38c-0.32,0.28-0.7,0.82-0.9,1.2c-2.18-0.56-4.04-1.46-5.58-2.7c-1.7,1.24-3.66,2.14-5.72,2.7
			c-0.14-0.34-0.46-0.9-0.74-1.18c1.96-0.46,3.84-1.28,5.46-2.44c-1.28-1.28-2.28-2.82-2.98-4.64l1.02-0.3h-1.76V95.5h8.48
			L52.47,95.44z M46.22,88.79v0.78c0,1.74-0.52,3.92-2.74,5.38c-0.18-0.28-0.66-0.78-0.92-0.98c2.02-1.28,2.38-3.02,2.38-4.42v-2.02
			h6.6v4.94c0,0.44,0.08,0.52,0.46,0.52h1.2c0.4,0,0.48-0.3,0.52-2.46c0.28,0.22,0.8,0.42,1.14,0.52c-0.1,2.48-0.42,3.1-1.52,3.1
			h-1.54c-1.2,0-1.56-0.34-1.56-1.68v-3.68H46.22z M45.72,96.74c0.64,1.58,1.58,2.98,2.78,4.12c1.28-1.12,2.3-2.5,2.98-4.12H45.72z"
			/>
		<path class="st3" d="M62.42,101.22c-0.06,0.12-0.22,0.2-0.44,0.16c-1.2,1.28-3.12,2.6-4.82,3.4c-0.24-0.24-0.68-0.66-0.98-0.86
			c1.68-0.74,3.6-1.98,4.72-3.3L62.42,101.22z M56.34,87.55h18.24v1.12h-6.22v1.66h4.8V95H57.84v-4.66h4.54v-1.66h-6.04V87.55z
			 M56.42,100.12V99h18.1v1.12h-8.38v3.7c0,1.38-0.64,1.5-3.76,1.5c-0.06-0.38-0.26-0.88-0.44-1.24c0.7,0.02,1.32,0.04,1.78,0.04
			c1.06,0,1.06-0.02,1.06-0.34v-3.66H56.42z M58.9,96.4h13.14v1.1H58.9V96.4z M59.1,91.4v2.54h3.28V91.4H59.1z M67.08,90.33v-1.66
			h-3.44v1.66H67.08z M63.64,91.4v2.54h3.44V91.4H63.64z M71.83,91.4h-3.46v2.54h3.46V91.4z M73.37,104.7
			c-1.04-0.92-3.18-2.34-4.9-3.32l1-0.72c1.7,0.9,3.84,2.26,4.96,3.2L73.37,104.7z"/>
		<path class="st3" d="M94.37,93.56h-6.82c1.88,1.66,4.8,3.16,7.34,3.88c-0.32,0.28-0.7,0.8-0.92,1.14
			c-0.62-0.22-1.28-0.48-1.94-0.78v7.44h-1.34v-0.64H80.46v0.72h-1.3v-7.56c-0.76,0.4-1.52,0.74-2.24,1c-0.2-0.3-0.58-0.8-0.88-1.06
			c2.48-0.8,5.34-2.4,7.2-4.14h-6.68V92.4h4.52c-0.3-0.76-0.92-1.84-1.52-2.62l1.16-0.44c0.68,0.84,1.38,1.98,1.64,2.76l-0.76,0.3
			h3.12v-3.38c-2.24,0.18-4.58,0.32-6.74,0.4c-0.04-0.28-0.18-0.78-0.3-1.04c4.82-0.22,10.68-0.72,13.84-1.4l0.98,1.08
			c-0.04,0.04-0.1,0.04-0.18,0.04c-0.06,0-0.14,0-0.22-0.02c-1.58,0.32-3.72,0.6-6.04,0.82v3.5h2.84c-0.22-0.1-0.44-0.18-0.58-0.24
			c0.62-0.86,1.4-2.24,1.8-3.2l1.62,0.6c-0.06,0.12-0.2,0.18-0.42,0.18c-0.44,0.76-1.12,1.86-1.72,2.66h4.76V93.56z M84.72,93.76
			c-1.34,1.4-3.2,2.74-5.1,3.76h11.82c-2-1-4-2.38-5.38-3.82v3.44h-1.34V93.76z M84.76,100.5v-1.9h-4.3v1.9H84.76z M80.46,101.5v2
			h4.3v-2H80.46z M90.69,100.5v-1.9h-4.64v1.9H90.69z M86.04,103.5h4.64v-2h-4.64V103.5z"/>
		<path class="st3" d="M114.63,96.34h-12.24c-0.18,0.6-0.42,1.26-0.64,1.94h9.04l0.32-0.06l0.86,0.28c-0.02,0.1-0.06,0.24-0.12,0.36
			c-0.54,3.68-1.06,5.26-1.82,5.92c-0.5,0.46-0.96,0.56-2.32,0.56c-0.72,0-1.74-0.04-2.8-0.12c-0.02-0.38-0.2-0.92-0.46-1.26
			c1.46,0.12,2.94,0.14,3.48,0.14c0.5,0,0.74-0.02,0.98-0.18c0.58-0.44,1-1.7,1.42-4.38h-9.04c-0.2,0.54-0.38,1.04-0.56,1.46
			c-0.76-0.16-1.1-0.22-1.44-0.26c0.52-1.14,1.14-2.88,1.62-4.4h-4.64V95.1h18.36V96.34z M111.81,87.73v5.78H99.28v-5.78H111.81z
			 M110.43,92.29v-3.34h-9.82v3.34H110.43z"/>
		<path class="st3" d="M123.9,87.67c-0.04,0.24-0.28,0.34-0.66,0.36c-0.22,1.12-0.58,3.06-0.82,4.26c0.9-0.1,1.72-0.18,2.22-0.18
			c3.04-0.04,4.08,1.98,4.08,4.98c0,1.5-0.28,3.28-0.68,4.48c-0.62,2.04-1.9,3.02-3.56,3.02c-0.82,0-1.9-0.34-3.62-1.74
			c0.22-0.36,0.38-0.8,0.54-1.22c1.6,1.24,2.44,1.52,3.06,1.52c1.14,0,1.82-0.72,2.22-2c0.42-1.24,0.64-3.08,0.64-4.1
			c-0.02-2.28-0.76-3.64-2.76-3.62c-0.6,0-1.42,0.08-2.44,0.2c-1,4.08-2.18,7.58-4.1,10.8l-1.32-0.64c1.94-3.1,3.04-6.2,3.98-10
			c-1.02,0.12-2.48,0.3-3.56,0.48l-0.12-1.4c0.98-0.12,2.62-0.3,3.96-0.46c0.3-1.46,0.62-3.26,0.86-5.02L123.9,87.67z M133.17,97.3
			c-0.64-2.92-2.54-5.4-4.5-6.84l1.08-0.84c2.12,1.5,4.22,4.26,4.86,7.12L133.17,97.3z"/>
		<path class="st3" d="M140.2,91.01c-0.08,0.2-0.24,0.3-0.52,0.34c-0.16,2.96-0.54,5.48-0.82,5.9h0.02
			c1.96-1.46,5.02-2.46,7.36-2.46c3.08,0,5,1.58,4.96,4.38c-0.06,3.68-3.1,5.32-10.84,5.64c-0.1-0.38-0.28-0.94-0.5-1.32
			c6.98-0.3,9.78-1.44,9.84-4.3c0.02-1.92-1.32-3.08-3.66-3.08c-3.7,0-7.04,2.22-7.6,3.2l-1.36-0.66c0.4-0.38,1.1-3.96,1.14-7.88
			L140.2,91.01z M140.54,87.13c2.72,0.32,5.8,0.94,7.76,1.76l-0.5,1.38c-2.06-0.88-5.04-1.46-7.68-1.82L140.54,87.13z"/>
		<path class="st3" d="M160.32,96.78L158,97.62v6.04c0,1.44-0.66,1.66-3.32,1.62c-0.06-0.32-0.26-0.88-0.44-1.24
			c0.94,0.02,1.8,0.02,2.06,0.02c0.26-0.02,0.38-0.1,0.38-0.38v-5.6c-0.94,0.34-1.8,0.64-2.48,0.86c0,0.16-0.1,0.28-0.24,0.32
			l-0.56-1.58c0.9-0.24,2.04-0.58,3.28-0.98v-4.68h-3.04v-1.26h3.04v-4.04l1.72,0.1c-0.02,0.16-0.12,0.24-0.4,0.28v3.66h2.3v1.26
			H158v4.26l2.16-0.68L160.32,96.78z M169.87,95.44l0.9,0.4c-0.04,0.1-0.12,0.14-0.18,0.2c-0.76,2.34-2.04,4.2-3.64,5.68
			c1.48,1.1,3.3,1.92,5.4,2.38c-0.32,0.28-0.7,0.82-0.9,1.2c-2.18-0.56-4.04-1.46-5.58-2.7c-1.7,1.24-3.66,2.14-5.72,2.7
			c-0.14-0.34-0.46-0.9-0.74-1.18c1.96-0.46,3.84-1.28,5.46-2.44c-1.28-1.28-2.28-2.82-2.98-4.64l1.02-0.3h-1.76V95.5h8.48
			L169.87,95.44z M163.62,88.79v0.78c0,1.74-0.52,3.92-2.74,5.38c-0.18-0.28-0.66-0.78-0.92-0.98c2.02-1.28,2.38-3.02,2.38-4.42
			v-2.02h6.6v4.94c0,0.44,0.08,0.52,0.46,0.52h1.2c0.4,0,0.48-0.3,0.52-2.46c0.28,0.22,0.8,0.42,1.14,0.52
			c-0.1,2.48-0.42,3.1-1.52,3.1h-1.54c-1.2,0-1.56-0.34-1.56-1.68v-3.68H163.62z M163.12,96.74c0.64,1.58,1.58,2.98,2.78,4.12
			c1.28-1.12,2.3-2.5,2.98-4.12H163.12z"/>
		<path class="st3" d="M179.82,101.22c-0.06,0.12-0.22,0.2-0.44,0.16c-1.2,1.28-3.12,2.6-4.82,3.4c-0.24-0.24-0.68-0.66-0.98-0.86
			c1.68-0.74,3.6-1.98,4.72-3.3L179.82,101.22z M173.74,87.55h18.24v1.12h-6.22v1.66h4.8V95h-15.32v-4.66h4.54v-1.66h-6.04V87.55z
			 M173.82,100.12V99h18.1v1.12h-8.38v3.7c0,1.38-0.64,1.5-3.76,1.5c-0.06-0.38-0.26-0.88-0.44-1.24c0.7,0.02,1.32,0.04,1.78,0.04
			c1.06,0,1.06-0.02,1.06-0.34v-3.66H173.82z M176.3,96.4h13.14v1.1H176.3V96.4z M176.5,91.4v2.54h3.28V91.4H176.5z M184.49,90.33
			v-1.66h-3.44v1.66H184.49z M181.04,91.4v2.54h3.44V91.4H181.04z M189.23,91.4h-3.46v2.54h3.46V91.4z M190.77,104.7
			c-1.04-0.92-3.18-2.34-4.9-3.32l1-0.72c1.7,0.9,3.84,2.26,4.96,3.2L190.77,104.7z"/>
	</g>
</g>
<g transform="translate(0.000000,1280.000000) scale(0.100000,-0.100000)">
	<path class="st3" d="M1317,12721.04c-18.23-2.1-33.52-9.09-41.7-19.03c-3.18-3.86-6.14-9.77-7.44-14.71
		c-0.91-3.64-2.16-16.02-1.65-16.87c0.17-0.23,1.31-0.45,2.56-0.45c2.05,0,2.27-0.11,2.1-1.25l-0.17-1.31l16.81-0.17l16.81-0.11
		l0.34,4.66c0.85,11.82,4.89,17.44,14.94,20.9c9.15,3.18,23.69,1.48,28.23-3.29c3.47-3.63,5.06-10.74,3.81-16.87
		c-2.44-11.87-11.53-17.55-29.25-18.4l-7.38-0.34l-0.17-10.05l-0.11-10.11h1.25c2.56,0,3.98-0.68,3.69-1.7
		c-0.23-0.85,0.57-1.02,7.78-1.31c16.59-0.8,25.28-4.66,29.03-13.01c2.16-4.77,2.27-11.53,0.34-16.53
		c-1.59-4.09-6.48-9.26-10.79-11.42c-12.27-6.25-32.32-4.26-38.17,3.81c-1.59,2.22-3.92,8.52-3.92,10.68c0,0.68-0.4,1.08-1.08,1.08
		c-1.19,0-1.76,1.08-1.76,3.18v1.36h-18.75c-15.85,0-18.75-0.11-18.75-0.8c0-5.23,2.39-14.77,4.94-19.88
		c3.29-6.65,11.3-15.56,18.06-20.22c6.7-4.6,16.76-8.41,27.32-10.28c8.12-1.42,24.77-1.76,32.89-0.57
		c27.95,3.98,45.9,17.1,51.18,37.26c1.25,4.88,1.42,15.62,0.28,20.17c-1.31,5.45-4.26,10.79-8.52,15.39
		c-4.83,5.23-8.46,8.12-15.05,11.76l-5.06,2.84l1.93,0.97c3.86,1.99,10.11,6.7,13.12,9.83c5.91,6.25,8.07,11.7,8.07,20.85
		c0,10.28-2.73,17.1-9.88,24.88c-8.8,9.43-18.29,14.6-32.21,17.5C1340.52,12721.56,1327.23,12722.18,1317,12721.04z"/>
	<path class="st3" d="M1138.06,12719.06c-0.8-0.11-3.35-0.51-5.68-0.85c-28.8-4.15-46.01-22.21-46.24-48.51l-0.06-6.82l2.1-0.17
		c1.59-0.11,2.16-0.45,2.27-1.31c0.11-0.62,0.34-1.14,0.62-1.08c0.23,0,8.07,0,17.44,0h17.04v5c0,5.4,0.97,10.11,2.9,13.86
		c1.76,3.46,6.48,8.18,9.83,9.83c8.35,4.09,20.85,4.09,29.48,0c3.75-1.82,5.62-3.81,7.73-8.24c1.36-2.9,1.48-3.69,1.48-11.08
		c0-7.78-0.06-8.01-1.82-11.82c-4.32-9.15-13.86-16.36-45.05-34.14c-7.04-4.03-15-8.8-17.67-10.68
		c-17.67-12.04-25.45-23.8-28.29-42.89c-0.34-2.22-0.62-4.88-0.62-5.79c0-1.7,0.11-1.76,2.5-1.76c2.33,0,2.44-0.06,2.16-1.42
		l-0.23-1.42h64.82h64.82v12.78c0,12.38-0.06,12.78-1.14,12.78c-0.85,0-1.19,0.51-1.48,2.27l-0.4,2.27h-38.63h-38.68l3.07,3.12
		c4.6,4.66,10,8.35,29.88,20.22c22.44,13.46,27.89,17.27,35.45,24.88c8.46,8.52,11.59,14.83,12.38,25.05
		c0.85,10.28-1.19,20.28-5.62,27.55c-2.33,3.86-9.54,11.76-13.63,14.88c-6.93,5.34-16.7,9.54-27.78,11.93
		c-5.57,1.19-8.35,1.42-19.03,1.59C1145.11,12719.23,1138.86,12719.23,1138.06,12719.06z"/>
	<path class="st3" d="M978.33,12713.77c-6.53-13.63-23.12-21.25-49.31-22.67l-7.67-0.4v-9.94v-9.94l2.44-0.17
		c2.04-0.17,2.44-0.34,2.27-1.31c-0.17-1.08,0.23-1.14,20.73-1.08h20.85v-51.69v-51.69h2.27c2.04,0,2.27-0.11,2.27-1.42v-1.42h18.18
		h18.18v75.83c0,74.3,0,75.84-1.08,75.84c-0.85,0-1.19,0.57-1.48,2.27l-0.4,2.27l-12.55-0.06h-12.61L978.33,12713.77z"/>
	<path class="st3" d="M1323.02,12526.83c-24.14-3.01-41.81-15.34-51.47-35.96c-5.96-12.67-8.12-25.22-8.18-46.98
		c-0.06-26.19,3.35-40.96,12.5-53.74c3.07-4.32,11.93-12.84,16.3-15.79c20.17-13.35,53.06-15.11,75.66-4.09
		c7.44,3.64,12.38,7.33,17.44,12.84c10.4,11.42,15.45,29.08,12.72,44.59c-1.7,9.71-4.83,16.3-11.02,23.35
		c-7.56,8.69-15.51,14.14-25.05,17.21c-8.12,2.67-11.99,3.18-22.78,3.12c-8.24,0-10.79-0.23-14.88-1.25
		c-5.74-1.42-11.02-3.69-16.25-6.99l-3.69-2.33l0.4,5.74c0.8,11.47,3.92,19.66,9.66,25.33c5.57,5.51,12.67,8.24,21.7,8.24
		c9.71,0,15.62-2.27,19.14-7.38c1.19-1.7,2.67-3.29,3.24-3.52c0.57-0.23,1.36-0.91,1.7-1.53c0.57-1.14,1.02-1.19,17.89-1.19
		c9.54,0,17.33,0.17,17.33,0.46c-0.06,1.59-2.44,9.54-3.69,12.21c-2.05,4.2-9.03,12.21-13.86,15.79
		c-6.99,5.17-16.25,9.03-26.76,11.08C1345.52,12527.11,1329.04,12527.56,1323.02,12526.83z M1345.86,12447.01
		c11.93-2.84,17.72-10.62,17.72-23.8c0-8.86-2.78-15.68-8.52-20.96c-6.08-5.62-13.58-8.12-22.72-7.61
		c-11.53,0.68-19.2,5.34-22.67,13.8c-2.05,4.89-2.39,14.54-0.68,20c2.78,9.26,10.28,16.25,19.83,18.52
		C1333.13,12448.04,1341.43,12448.04,1345.86,12447.01z"/>
	<path class="st3" d="M977.93,12523.13c-0.57-0.62-16.53-21.76-35.5-46.98l-34.42-45.84v-12.84v-12.78h2.27
		c2.05,0,2.27-0.11,2.27-1.42v-1.42h36.36h36.36v-15.62v-15.62h2.61c2.33,0,2.56-0.11,2.39-1.25l-0.17-1.31h18.18h18.18l0.11,16.76
		l0.11,16.76l10,0.17l9.94,0.11v11.64v11.65h-1.31c-1.14,0-1.36,0.28-1.42,2.04c-0.06,1.14-0.17,2.16-0.23,2.27
		c-0.11,0.06-3.98,0.23-8.58,0.34l-8.35,0.17l-0.17,44.88l-0.11,44.88l-1.25-0.17c-1.08-0.17-1.25,0.11-1.42,2.16l-0.17,2.33
		l-22.32,0.11C979.58,12524.27,978.89,12524.21,977.93,12523.13z M985.26,12459.23v-29.6l-22.49,0.06
		c-13.69,0.06-22.38,0.28-22.27,0.62c0.17,0.51,44.37,58.34,44.65,58.4C985.2,12488.77,985.26,12475.47,985.26,12459.23z"/>
	<path class="st3" d="M1103.7,12521.6c-0.4-1.19-16.76-83.62-16.76-84.36c0-0.51,0.91-0.74,2.61-0.74c2.33,0,2.56-0.11,2.39-1.25
		l-0.17-1.31l15.91-0.17l15.96-0.11l1.76,2.5c2.22,3.12,6.59,6.08,11.53,7.78c3.01,1.02,5,1.31,10.79,1.31
		c13.63,0.11,21.42-3.52,25.68-11.82c5.34-10.51,3.98-25.11-3.12-34.03c-5.62-6.93-16.93-10.57-29.65-9.37
		c-10.34,0.91-16.42,4.49-17.95,10.62c-0.57,2.16-1.08,3.12-1.99,3.47c-0.8,0.34-1.36,1.19-1.59,2.5l-0.4,2.04H1100h-18.75v-1.65
		c0-3.86,1.82-10.28,4.37-15.39c2.33-4.6,3.52-6.25,8.41-11.08c8.18-8.24,12.67-11.08,23.74-15c9.49-3.35,16.25-4.32,30.22-4.26
		c11.42,0,13.12,0.11,19.83,1.53c22.38,4.77,38.74,16.81,45.79,33.69c6.65,16.02,4.71,35.96-4.83,49.36
		c-3.58,5.06-11.36,12.67-16.13,15.85c-11.25,7.5-25.34,11.02-41.24,10.4c-8.69-0.34-13.69-1.36-21.13-4.37
		c-2.44-1.02-4.77-1.99-5.23-2.16c-0.45-0.17-0.68-0.06-0.45,0.28c0.17,0.28,1.36,5.91,2.67,12.44s2.44,12.33,2.61,12.84
		c0.28,0.97,2.84,1.02,40.16,1.14l39.88,0.17v12.5v12.5l-1.25,0.17c-1.08,0.17-1.31,0.57-1.31,2.44v2.22h-51.69
		C1114.77,12522.28,1103.87,12522.11,1103.7,12521.6z"/>
	<path class="st3" d="M1320.12,12333.97c-17.16-2.16-29.71-7.9-39.76-18.18c-9.43-9.66-13.92-20.96-13.92-35.05
		c0-7.84,0.68-12.33,2.78-18.46c3.18-9.2,8.58-16.7,17.5-24.31c9.54-8.12,21.81-12.55,36.58-13.18
		c15.51-0.68,27.15,2.73,35.22,10.28l2.39,2.27l-0.34-4.83c-0.8-10.45-4.77-20.56-10.05-25.85c-5.57-5.57-11.76-7.84-21.3-7.78
		c-10.05,0-17.04,2.73-19.48,7.55c-0.68,1.42-1.59,2.56-1.99,2.56c-0.34,0-1.08,1.08-1.53,2.44l-0.8,2.39l-18.23-0.11l-18.18-0.17
		l0.23-2.56c0.28-4.15,2.27-9.66,4.89-13.97c2.67-4.2,11.08-12.84,15.79-16.08c6.76-4.66,17.61-8.46,28.46-10.05
		c8.41-1.25,23.86-0.79,31.3,0.85c26.13,5.85,40.79,20.73,48,48.68c8.01,30.96,4.66,66.75-7.9,84.87
		c-3.52,5.11-13.69,15.11-18.69,18.41C1357.5,12332.67,1339.04,12336.36,1320.12,12333.97z M1342.22,12306.08
		c9.66-2.33,14.77-7.61,17.16-17.67c1.08-4.66,0.8-13.12-0.57-17.55c-1.36-4.43-5.17-9.66-8.98-12.5
		c-5.96-4.37-12.89-6.25-21.19-5.74c-11.08,0.74-17.84,4.77-20.96,12.67c-4.03,10-3.01,22.5,2.44,30.73
		C1316.49,12305.57,1328.65,12309.38,1342.22,12306.08z"/>
	<path class="st3" d="M1138.01,12331.7c-20.9-3.29-37.15-12.84-43.63-25.79c-4.94-9.77-5-21.81-0.17-30.16
		c2.78-4.83,11.08-12.5,16.76-15.51c3.01-1.59,3.07-1.48-1.87-3.86c-10.45-5.06-18.97-13.18-22.27-21.25
		c-2.22-5.34-2.44-6.87-2.44-15.05c0.06-7.38,0.17-8.69,1.59-12.78c0.8-2.5,2.44-6.19,3.64-8.24c2.56-4.32,10.85-13.18,16.08-17.1
		c13.07-9.83,34.77-14.94,57.32-13.46c20.62,1.31,36.87,7.67,48.11,18.86c4.49,4.49,7.33,8.63,9.54,13.86
		c4.89,11.53,3.92,27.04-2.22,36.18c-4.26,6.42-12.27,13.41-20.68,18.06l-3.64,1.99l4.15,2.04c9.77,4.83,15.17,11.02,17.89,20.51
		c2.22,7.5,0.57,18.75-3.58,25.28c-2.39,3.75-10,11.64-14.09,14.54c-8.07,5.74-20.39,10.28-32.32,11.87
		C1158.51,12332.72,1144.6,12332.72,1138.01,12331.7z M1166.01,12304.21c10.85-2.78,15.39-7.5,15.39-15.96
		c0.06-4.94-1.65-8.75-5.51-12.44c-5.74-5.4-12.61-7.67-23.06-7.67c-7.38,0-11.82,0.97-17.44,3.69c-4.43,2.16-6.65,4.77-7.9,9.43
		c-0.85,3.07-0.91,4.2-0.34,7.16c1.08,5.85,5.68,11.19,11.87,13.86C1146.24,12305.34,1158.12,12306.19,1166.01,12304.21z
		 M1167.6,12242.8c5.51-1.87,7.56-3.07,10.11-6.02c3.64-4.09,4.89-7.9,4.89-15c0.06-7.95-1.25-11.36-6.14-16.25
		c-5.96-5.91-12.84-8.41-23.63-8.41c-7.84-0.06-12.33,0.85-17.78,3.58c-4.94,2.5-7.27,5.34-8.98,10.96
		c-2.61,8.52-0.45,17.89,5.51,24.31c3.12,3.35,8.92,6.42,14.43,7.67C1151.41,12244.9,1162.72,12244.45,1167.6,12242.8z"/>
	<path class="st3" d="M913.68,12317.78v-13.63h2.33c2.04,0,2.33-0.11,2.04-1.14c-0.28-1.14,0.06-1.14,44.02-1.25l44.37-0.17
		l-6.14-6.53c-6.65-7.04-17.27-19.65-22.78-26.98c-14.83-19.65-24.77-40.73-30.62-64.76c-1.82-7.56-4.83-22.72-4.83-24.48
		c0-0.45,0.57-0.79,1.31-0.79c2.56,0,3.92-0.68,3.64-1.76c-0.28-1.02,0.45-1.08,17.84-1.08c9.94,0,18.12,0.06,18.12,0.17
		c0,0.06,0.4,3.46,0.85,7.5c4.94,42.15,21.76,74.02,59.87,113.44l8.58,8.86v10.85c0,10.45-0.06,10.85-1.14,10.85
		c-0.85,0-1.19,0.51-1.48,2.27l-0.4,2.27h-67.77h-67.83V12317.78z"/>
	<path class="st3" d="M1138.92,12162.36c-25.34-3.92-43.51-18.75-51.98-42.43c-3.35-9.43-4.83-17.1-5.68-29.77
		c-1.31-20.45,1.87-40.5,8.8-54.99c4.32-9.03,13.24-20.22,20.45-25.73c4.32-3.29,12.04-7.21,17.89-9.15
		c15.85-5.11,38.12-5,53.74,0.23c15.56,5.23,27.89,15.91,35.39,30.67c6.08,12.04,8.98,25.05,9.54,43.23
		c0.97,31.02-7.27,55.27-24.31,71.58c-9.66,9.2-21.93,14.66-37.61,16.7C1159.08,12163.5,1145.11,12163.33,1138.92,12162.36z
		 M1163,12131.52c4.66-1.42,9.03-4.83,11.02-8.46c3.86-7.16,6.08-22.1,6.08-41.58c0-38.23-6.87-53-25.28-54.36
		c-9.49-0.74-17.89,3.75-21.53,11.36c-1.59,3.41-3.35,11.25-4.37,19.43c-0.97,7.44-0.97,34.03,0,41.47
		c2.44,19.65,7.56,28.74,18.06,32.09C1151.47,12132.94,1158.51,12132.94,1163,12131.52z"/>
</g>
</svg>
