<?xml version="1.0" encoding="utf-8"?>
<!-- Generator: Adobe Illustrator 23.0.6, SVG Export Plug-In . SVG Version: 6.00 Build 0)  -->
<svg version="1.1" xmlns="http://www.w3.org/2000/svg" xmlns:xlink="http://www.w3.org/1999/xlink" x="0px" y="0px"
	 viewBox="0 0 231 120" style="enable-background:new 0 0 231 120;" xml:space="preserve">
<style type="text/css">
	.st0{fill:none;}
	.st1{fill:#171C61;}
	.st2{enable-background:new    ;}
	.st3{fill:#FFFFFF;}
</style>
<g id="レイヤー_1">
	<rect x="35.44" y="86" class="st0" width="161.56" height="25"/>
	<g>
		<g>
			<path class="st1" d="M219,120H12c-6.6,0-12-5.4-12-12V12C0,5.4,5.4,0,12,0h207c6.6,0,12,5.4,12,12v96
				C231,114.6,225.6,120,219,120z"/>
		</g>
		<g class="st2">
			<path class="st3" d="M82.98,96.78l-2.32,0.84v6.04c0,1.44-0.66,1.66-3.32,1.62c-0.06-0.32-0.26-0.88-0.44-1.24
				c0.94,0.02,1.8,0.02,2.06,0.02c0.26-0.02,0.38-0.1,0.38-0.38v-5.6c-0.94,0.34-1.8,0.64-2.48,0.86c0,0.16-0.1,0.28-0.24,0.32
				l-0.56-1.58c0.9-0.24,2.04-0.58,3.28-0.98v-4.68H76.3v-1.26h3.04v-4.04l1.72,0.1c-0.02,0.16-0.12,0.24-0.4,0.28v3.66h2.3v1.26
				h-2.3v4.26l2.16-0.68L82.98,96.78z M92.52,95.44l0.9,0.4c-0.04,0.1-0.12,0.14-0.18,0.2c-0.76,2.34-2.04,4.2-3.64,5.68
				c1.48,1.1,3.3,1.92,5.4,2.38c-0.32,0.28-0.7,0.82-0.9,1.2c-2.18-0.56-4.04-1.46-5.58-2.7c-1.7,1.24-3.66,2.14-5.72,2.7
				c-0.14-0.34-0.46-0.9-0.74-1.18c1.96-0.46,3.84-1.28,5.46-2.44c-1.28-1.28-2.28-2.82-2.98-4.64l1.02-0.3H83.8V95.5h8.48
				L92.52,95.44z M86.28,88.79v0.78c0,1.74-0.52,3.92-2.74,5.38c-0.18-0.28-0.66-0.78-0.92-0.98C84.64,92.7,85,90.96,85,89.55v-2.02
				h6.6v4.94c0,0.44,0.08,0.52,0.46,0.52h1.2c0.4,0,0.48-0.3,0.52-2.46c0.28,0.22,0.8,0.42,1.14,0.52c-0.1,2.48-0.42,3.1-1.52,3.1
				h-1.54c-1.2,0-1.56-0.34-1.56-1.68v-3.68H86.28z M85.78,96.74c0.64,1.58,1.58,2.98,2.78,4.12c1.28-1.12,2.3-2.5,2.98-4.12H85.78z
				"/>
			<path class="st3" d="M102.48,101.22c-0.06,0.12-0.22,0.2-0.44,0.16c-1.2,1.28-3.12,2.6-4.82,3.4c-0.24-0.24-0.68-0.66-0.98-0.86
				c1.68-0.74,3.6-1.98,4.72-3.3L102.48,101.22z M96.4,87.55h18.24v1.12h-6.22v1.66h4.8V95H97.9v-4.66h4.54v-1.66H96.4V87.55z
				 M96.48,100.12V99h18.1v1.12h-8.38v3.7c0,1.38-0.64,1.5-3.76,1.5c-0.06-0.38-0.26-0.88-0.44-1.24c0.7,0.02,1.32,0.04,1.78,0.04
				c1.06,0,1.06-0.02,1.06-0.34v-3.66H96.48z M98.96,96.4h13.14v1.1H98.96V96.4z M99.16,91.4v2.54h3.28V91.4H99.16z M107.14,90.33
				v-1.66h-3.44v1.66H107.14z M103.7,91.4v2.54h3.44V91.4H103.7z M111.88,91.4h-3.46v2.54h3.46V91.4z M113.42,104.7
				c-1.04-0.92-3.18-2.34-4.9-3.32l1-0.72c1.7,0.9,3.84,2.26,4.96,3.2L113.42,104.7z"/>
			<path class="st3" d="M134.56,91.55h-10.3c-0.08,1.12-0.18,2.3-0.34,3.48h7.14l0.3-0.04l0.8,0.14c-0.02,0.14-0.04,0.3-0.08,0.42
				c-0.42,6.02-0.82,8.26-1.62,9.06c-0.54,0.58-1.08,0.68-2.34,0.68c-0.72,0-1.72-0.04-2.72-0.1c-0.04-0.38-0.22-0.94-0.48-1.32
				c1.48,0.14,2.92,0.14,3.42,0.14c0.48,0,0.74-0.02,0.96-0.22c0.62-0.56,1.02-2.58,1.38-7.48h-6.98c-0.68,3.56-2.26,7.04-6.46,9.04
				c-0.2-0.34-0.6-0.82-0.96-1.08c5.66-2.56,6.28-7.96,6.52-12.72h-6.34v-1.3h8.28v-3.6l1.78,0.12c-0.02,0.14-0.14,0.24-0.4,0.28
				v3.2h8.44V91.55z"/>
			<path class="st3" d="M136.88,92.44c1.4,0.44,3.18,1.22,4.08,1.86l-0.72,1.16c-0.88-0.66-2.64-1.5-4.04-1.98L136.88,92.44z
				 M136.92,104.16c1.04-1.58,2.56-4.26,3.68-6.56c0.8,0.68,0.9,0.76,1,0.84c-1.02,2.16-2.36,4.66-3.34,6.2
				c0.06,0.1,0.1,0.2,0.1,0.28c0,0.1-0.04,0.18-0.1,0.24L136.92,104.16z M138,86.85c1.4,0.52,3.14,1.38,4.02,2.1l-0.78,1.12
				c-0.86-0.72-2.58-1.66-4-2.22L138,86.85z M154.78,95.3v1.3H147l0.72,0.24c-0.06,0.12-0.22,0.2-0.46,0.22
				c-0.62,1.7-1.64,4-2.54,5.78c2.1-0.12,4.56-0.24,6.98-0.4c-0.7-1.04-1.52-2.1-2.3-3l1.14-0.6c1.58,1.74,3.3,4.14,4.04,5.74
				l-1.26,0.72c-0.2-0.5-0.52-1.08-0.88-1.7c-3.68,0.3-7.54,0.56-9.96,0.72c-0.04,0.16-0.16,0.26-0.3,0.28l-0.56-1.6l1.66-0.08
				c0.92-1.78,1.96-4.36,2.6-6.32h-4.28v-1.3h5.76v-3.94h-4.78v-1.28h4.78v-3.36l1.84,0.12c-0.02,0.2-0.2,0.34-0.46,0.38v2.86h4.88
				v1.28h-4.88v3.94H154.78z"/>
		</g>
	</g>
</g>
<g id="_x32_">
	<g>
		<path class="st3" d="M115.5,5.92c-19.16,0-34.69,15.53-34.69,34.69S96.34,75.3,115.5,75.3s34.69-15.53,34.69-34.69
			S134.66,5.92,115.5,5.92z M108.95,57.25c0-2.39,1.94-4.32,4.32-4.32c2.39,0,4.32,1.94,4.32,4.32c0,2.38-1.94,4.32-4.32,4.32
			C110.89,61.57,108.95,59.64,108.95,57.25z M127.38,35.57c-0.49,1.33-1.19,2.48-1.99,3.44c-1.61,1.92-3.51,3.08-5.07,3.94
			c-1.05,0.57-1.97,1-2.54,1.32c-0.39,0.22-0.61,0.4-0.71,0.52c-0.1,0.13-0.14,0.18-0.2,0.38c-0.04,0.14-0.08,0.35-0.08,0.69
			c0,0.93,0,1.7,0,1.7c0,0.88-0.71,1.59-1.59,1.59h-3.83c-0.88,0-1.59-0.71-1.59-1.59c0,0,0-0.77,0-1.7c0-0.87,0.1-1.73,0.33-2.54
			c0.22-0.81,0.57-1.59,1.02-2.26c0.89-1.37,2.11-2.28,3.25-2.91c1-0.55,2-1.01,2.92-1.53c0.92-0.51,1.74-1.07,2.34-1.68
			c0.4-0.4,0.72-0.82,0.96-1.29c0.32-0.63,0.54-1.36,0.54-2.49c0-0.33-0.09-0.77-0.36-1.27c-0.26-0.5-0.69-1.04-1.26-1.53
			c-1.15-0.98-2.82-1.7-4.75-1.7c-2.21,0.01-3.68,0.53-4.82,1.17c-1.13,0.65-1.49,1.3-1.49,1.3c-0.58,0.5-1.44,0.52-2.04,0.04
			l-2.94-2.36c-0.37-0.29-0.59-0.74-0.6-1.21c-0.01-0.47,0.19-0.92,0.55-1.23c0,0,0.92-1.41,3.04-2.63c2.12-1.22,4.92-2.1,8.3-2.09
			c2.74,0,5.26,0.75,7.35,1.99c2.09,1.24,3.78,2.95,4.86,5c0.72,1.37,1.16,2.9,1.16,4.52C128.13,32.75,127.87,34.25,127.38,35.57z"
			/>
	</g>
</g>
</svg>
